# xmcd
#
# Track frame offsets:
#	150
#	18035
#	35062
#	53384
#	70878
#	84033
#	99958
#	117847
#	134875
#	153198
#	170694
#	183848
#
# Disc length: 2663 seconds
#
# Revision: 0
# Processed by: cddbd v1.5.2PL0 Copyright (c) Steve Scherf et al.
# Submitted via: audiograbber 1.83.01
#
DISCID=8c0a650c
DTITLE=Various Artist - CB20070 Hot Hits Vol. 70
DYEAR=1900
DGENRE=Country
TTITLE0=Alan Jackson - Gone Crazy (Vocals)
TTITLE1=Steve Wariner - In A Heartbeat (Vocals)
TTITLE2=James Prosser - Life Goes On (Vocals)
TTITLE3=Clint Black - You Don't Need Me Now (Vocals)
TTITLE4=Trini Triggs - Horse To Mexico (Vocals)
TTITLE5=Tractors, The - Shortenin' Bread (Vocals)
TTITLE6=Alan Jackson - Gone Crazy
TTITLE7=Steve Wariner - In A Heartbeat
TTITLE8=James Prosser - Life Goes On
TTITLE9=Clint Black - You Don't Need Me Now
TTITLE10=Trini Triggs - Horse To Mexico
TTITLE11=Tractors, The - Shortenin' Bread
EXTD=
EXTT0=
EXTT1=
EXTT2=
EXTT3=
EXTT4=
EXTT5=
EXTT6=
EXTT7=
EXTT8=
EXTT9=
EXTT10=
EXTT11=
PLAYORDER=
